<svg xmlns="http://www.w3.org/2000/svg" xmlns:xlink="http://www.w3.org/1999/xlink" id="a" viewBox="0 0 1000 1000"><defs><style>.j{fill:url(#c)}.k{fill:url(#f)}.l{fill:url(#g)}.l,.m{opacity:.7}.n{fill:url(#b)}.o{fill:url(#i)}.p{fill:url(#d)}.q{fill:url(#e)}.r{fill:#014a59}.m{fill:url(#h)}.s{fill:#15adbb;opacity:.8}</style><linearGradient id="b" x1="3.57" x2="777.2" y1="593.35" y2="593.35" gradientTransform="matrix(1, 0, 0, 1, 0, 0)" gradientUnits="userSpaceOnUse"><stop offset=".13" stop-color="#2fbabd"/><stop offset=".55" stop-color="#088a98"/><stop offset="1" stop-color="#036f6a"/></linearGradient><linearGradient id="c" x1="18.26" x2="711.11" y1="685.06" y2="685.06" gradientTransform="matrix(1, 0, 0, 1, 0, 0)" gradientUnits="userSpaceOnUse"><stop offset="0" stop-color="#b9f3c3"/><stop offset="1" stop-color="#34bdc3"/></linearGradient><linearGradient id="d" x1="593.84" x2="704.48" y1="504.38" y2="504.38" gradientTransform="matrix(1, 0, 0, 1, 0, 0)" gradientUnits="userSpaceOnUse"><stop offset="0" stop-color="#036f6a"/><stop offset=".6" stop-color="#088a98"/><stop offset="1" stop-color="#2fbabd"/></linearGradient><linearGradient id="e" x1="435.63" x2="559.81" y1="351.33" y2="351.33" xlink:href="#b"/><linearGradient id="f" x1="774" x2="575.17" y1="232.39" y2="432.25" xlink:href="#c"/><linearGradient id="g" x1="804.4" x2="605.57" y1="262.63" y2="462.49" gradientTransform="matrix(1, 0, 0, 1, 0, 0)" gradientUnits="userSpaceOnUse"><stop offset="0" stop-color="#eafff3"/><stop offset="1" stop-color="#22b6c0"/></linearGradient><linearGradient id="h" x1="737.2" x2="538.5" y1="195.75" y2="395.48" gradientTransform="matrix(1, 0, 0, 1, 0, 0)" gradientUnits="userSpaceOnUse"><stop offset="0" stop-color="#76ccb3"/><stop offset="1" stop-color="#20aab4"/></linearGradient><linearGradient id="i" x1="675.38" x2="687.16" y1="384.89" y2="280.38" gradientTransform="matrix(1, 0, 0, 1, 0, 0)" gradientUnits="userSpaceOnUse"><stop offset="0" stop-color="#0a868e"/><stop offset=".37" stop-color="#09848b"/><stop offset=".61" stop-color="#077e82"/><stop offset=".81" stop-color="#047574"/><stop offset=".99" stop-color="#00675f"/><stop offset="1" stop-color="#00675e"/></linearGradient></defs><circle cx="498.87" cy="500.52" r="496.42" class="r"/><path d="M72.69,246.67c11.55-9.8,30.09-22.25,53.95-24.19,71.43-5.8,127.85,87.68,131.6,94.19,30.42,52.7,20.68,86.31,64.51,140.64,11.86,14.7,21.46,26.59,37.42,36.13,63.5,37.95,148.98-8.43,163.86-16.77-44.79,100.76-33.61,149.55-15.48,175.47,34.64,49.52,109.47,36.71,210.31,113.54,17.55,13.37,38.75,31.64,50.32,61.93,13.97,36.56,6.55,71.39,1.29,89.03-16.88,12.97-48.61,32.51-86.45,28.39-64.45-7.03-101.87-77.86-107.09-87.74-2.34-4.44-24.46-46.76-43.87-98.06-3.93-10.4-12.43-33.52-29.68-37.42-4.07-.92-10.94,.24-24.51,2.58-22.08,3.81-25.54,6.13-33.55,6.45-17.56,.72-31.24-9.16-40-15.48-41.3-29.81-67.08-131.94-117.41-215.47-23.63-39.21-52.39-85.55-108.38-109.67-13.07-5.63-74.07-31.91-116.12-3.87-45.41,30.28-58.25,116.91-27.09,172.89,43.42,78.01,141.8,41.74,300.62,149.67,34.91,23.72,76.28,56.82,94.19,110.96,6.54,19.77,21.24,64.22-3.87,101.93-30.54,45.86-94.03,42.83-98.06,42.58-36.64-11.42-92.26-33.59-148.13-78.06C46.05,778.83,17.59,627.05,10.76,587.29c-16.43-95.62-1.02-174.35,9.68-214.82,14.31-54.11,35.19-96.55,52.25-125.8Z" class="n"/><path d="M327.37,964.79c48.18,18,141.97,45.05,256.02,25.38,52.25-9.01,95.29-25.51,127.73-41.29-84.5-30.39-122.12-72.54-140.64-107.09-26.29-49.07-23.63-100.72-61.67-117.95-25.68-11.63-40.5,5.74-67.25,4.35-103.3-5.35-108.44-276.09-268.47-341.85-12.35-5.08-65.36-25.53-104.51-2.58-48.17,28.24-50.22,103.51-50.31,116.13,0,.68,0,1.28,0,1.28,0,0,.06,37.03,21.93,73.54,28.78,48.04,201.78,50.58,317.4,149.67,23.8,20.4,73.58,69.24,79.99,136.76,3.46,36.45-7.29,55.68-10.32,60.64-27.78,45.41-94.26,43.27-99.9,43Z" class="j"/><g><path d="M593.84,492.93c17.19-3.57,39.09-9.83,62.9-21.29,19.6-9.43,35.49-19.96,47.74-29.35-1.29,16.07-4.13,35.29-10,56.45-7.77,28.01-18.46,50.74-28.06,67.74-24.19-24.51-48.38-49.03-72.58-73.54Z" class="p"/><path d="M509.17,406.65c3.57-17.19,9.83-39.09,21.29-62.9,9.43-19.6,19.96-35.49,29.35-47.74-16.07,1.29-35.29,4.13-56.45,10-28.01,7.77-50.74,18.46-67.74,28.06,24.51,24.19,49.03,48.38,73.54,72.58Z" class="q"/><path d="M794.79,199.4c-23.78-.3-100.92,1.7-174.18,57.09-76.82,58.08-98.75,136.6-104.19,159.02l65.48,66.12c14.19-1.56,117.18-14.62,178.05-108.06,49.88-76.57,38.06-155.82,34.84-174.18Zm-112.25,179.02c-28.86,0-52.25-23.4-52.25-52.25s23.4-52.25,52.25-52.25,52.25,23.4,52.25,52.25-23.4,52.25-52.25,52.25Z" class="k"/><path d="M794.79,199.4c-19.9,40.39-50.01,91.67-95.05,144.52-47.34,55.54-95.73,94.69-133.86,121.12,5.34,5.53,10.68,11.07,16.02,16.6,22.3-2.48,69.66-10.78,117.19-44.99,50.77-36.54,72.89-81.87,78.54-94.19,28.99-63.16,21.25-121.11,17.15-143.06Z" class="l"/><path d="M794.79,199.4c-31.51,16.84-66.72,38.83-102.79,67.59-73.68,58.74-122.18,122.76-152.89,171.76-7.56-7.74-15.12-15.49-22.68-23.23,5.27-20.65,34.29-125.57,137.35-182.4,57.48-31.69,112.6-34.42,141.01-33.72Z" class="m"/><circle cx="681.98" cy="326.37" r="52.58" class="o"/><path d="M568.87,308.11c-7.01,20.75-17.09,60.22-8.95,108.38,4.67,27.64,13.91,49.69,21.99,65.15-21.83-22.04-43.65-44.08-65.48-66.12,2.97-11.9,7.04-25.01,12.69-38.86,11.82-29,26.68-51.78,39.76-68.54Z" class="s"/></g></svg>