<?xml version="1.0" encoding="UTF-8"?><svg id="a" xmlns="http://www.w3.org/2000/svg" xmlns:xlink="http://www.w3.org/1999/xlink" viewBox="0 0 3628.35 2040.94"><defs><style>.h{letter-spacing:-.03em;}.i{letter-spacing:0em;}.j{fill:url(#c);}.k{letter-spacing:-.01em;}.l{letter-spacing:-.03em;}.m{letter-spacing:0em;}.n{letter-spacing:-.01em;}.o{fill:url(#f);}.p{fill:#0e2a3f;font-family:CalSans-SemiBold, Cal Sans;font-size:190px;}.q{letter-spacing:0em;}.r{fill:url(#g);}.s{fill:url(#b);}.t{letter-spacing:0em;}.u{fill:url(#d);}.v{fill:url(#e);}.w{letter-spacing:0em;}.x{letter-spacing:0em;}</style><linearGradient id="b" x1="915.44" y1="1042.74" x2="740.71" y2="1364.12" gradientTransform="matrix(1, 0, 0, 1, 0, 0)" gradientUnits="userSpaceOnUse"><stop offset="0" stop-color="#13527c"/><stop offset="1" stop-color="#0a2a3f"/></linearGradient><linearGradient id="c" x1="1129.4" y1="1035.63" x2="955.81" y2="1357.63" xlink:href="#b"/><linearGradient id="d" x1="559.82" y1="979.53" x2="691.62" y2="1307.21" gradientTransform="matrix(1, 0, 0, 1, 0, 0)" gradientUnits="userSpaceOnUse"><stop offset="0" stop-color="#13527c"/><stop offset=".81" stop-color="#061723"/></linearGradient><linearGradient id="e" x1="1135.27" y1="846.15" x2="1176.81" y2="846.15" xlink:href="#b"/><linearGradient id="f" x1="1151.47" y1="796.03" x2="1311.28" y2="796.03" xlink:href="#b"/><linearGradient id="g" x1="338.88" y1="1244.9" x2="269.23" y2="1388.17" xlink:href="#b"/></defs><text class="p" transform="translate(1360.43 1205.85)"><tspan class="t" x="0" y="0">A</tspan><tspan class="i" x="122.93" y="0">u</tspan><tspan class="k" x="228.76" y="0">t</tspan><tspan x="288.42" y="0">o</tspan><tspan class="w" x="401.28" y="0">b</tspan><tspan class="h" x="517.37" y="0">o</tspan><tspan x="624.91" y="0">t</tspan><tspan class="q" x="687.23" y="0"> </tspan><tspan class="m" x="716.48" y="0">W</tspan><tspan x="915.41" y="0">ija</tspan><tspan class="l" x="1114.15" y="0">y</tspan><tspan x="1210.29" y="0">a</tspan><tspan class="n" x="1327.33" y="0"> </tspan><tspan class="x" x="1356.21" y="0">S</tspan><tspan x="1460.9" y="0">olution</tspan></text><g><path class="s" d="M1030.94,924.95c-16.69,34.31-42.56,87.84-74.01,154.36-17.38,36.77-35.39,73.23-52.86,109.95-55.07,115.73-69.86,151.04-109.95,169.16-26.25,11.87-59.6,14.67-61.32,14.8-28.85,2.25-52.51-2.25-67.66-6.34,12.61-5.1,30.69-14,48.63-29.6,29.86-25.96,42.67-55.93,48.63-69.78,0,0,44.68-103.68,93.04-198.76,49.03-96.4,76.68-116.44,97.27-126.87,29.55-14.97,58.63-17.27,78.24-16.92Z"/><path class="j" d="M1242.39,924.95c-16.69,34.31-42.56,87.84-74.01,154.36-17.38,36.77-35.39,73.23-52.86,109.95-55.07,115.73-69.86,151.04-109.95,169.16-26.25,11.87-59.6,14.67-61.32,14.8-28.85,2.25-52.51-2.25-67.66-6.34,12.61-5.1,30.69-14,48.63-29.6,29.86-25.96,42.67-55.93,48.63-69.78,0,0,44.68-103.68,93.04-198.76,49.03-96.4,76.68-116.44,97.27-126.87,29.55-14.97,58.63-17.27,78.24-16.92Z"/><path class="u" d="M553.06,1013.76c39.47,81.76,78.94,163.52,118.41,245.28,2.82,3.47,17.15,20.37,42.29,23.26,26.87,3.09,45.53-12.18,48.63-14.8-3.88,12.95-13.67,39.31-38.06,63.44-22.45,22.21-46.48,31.84-59.21,35.95-9.88-4.04-21.69-10.04-33.83-19.03-25.2-18.66-39.24-40.93-46.52-54.98-58.53-122.65-117.06-245.3-175.58-367.96,32.31-12.7,59.88-17.2,78.32-19,28.23-2.75,125.08-12.17,181.85,50.75,14.35,15.91,21.38,31.16,27.49,44.4,24.25,52.61,22.27,102.22,19.03,128.98-7.42-19.75-22.98-52.75-54.98-82.47-17.3-16.06-34.66-26.75-48.63-33.83h-59.21Z"/><path class="v" d="M1176.81,822.56c-3.77,15.19-7.54,30.38-11.31,45.57-10.08,.54-20.15,1.08-30.23,1.62l16.42-41.26c8.37-1.98,16.75-3.96,25.12-5.93Z"/><path class="o" d="M1285.91,825.29l10.1-60.48c.36-12.9-.7-33.8-9.71-57.36-6.9-18.03-16.09-31.45-23.28-40.33-8.12,4.4-17.48,10.54-26.77,19.11-23.91,22.06-33.96,47.83-38.26,62.21-8.04,26.88-2.54,29.37-14.28,85.51-4.39,20.99-7.54,31.41-8.98,36.03-7.38,23.59-16.33,42.21-23.26,54.98,21.57-6.91,46.43-12.7,74.23-15.51,6.43-.65,12.7-1.11,18.81-1.4,4.76-4.83,9.79-10.44,14.8-16.92,3.46-4.48,6.52-8.84,9.21-13,10.66,8.93,21.31,17.85,31.97,26.78l10.79-51.79-25.37-27.82Zm-41.56-41.81c-13.92,0-25.21-11.29-25.21-25.21s11.29-25.21,25.21-25.21,25.21,11.29,25.21,25.21-11.29,25.21-25.21,25.21Z"/><polygon class="r" points="384.7 1287.94 318.32 1148.55 225.39 1367.59 346.64 1367.59 384.7 1287.94"/></g></svg>