<svg xmlns="http://www.w3.org/2000/svg" xmlns:xlink="http://www.w3.org/1999/xlink" id="a" viewBox="0 0 2040.94 2040.94"><defs><style>.h{fill:url(#c)}.i,.j,.k{letter-spacing:0}.l{fill:url(#f)}.m{fill:#0e2a3f;font-family:CalSans-SemiBold,Cal Sans;font-size:145px}.n{fill:url(#g)}.o{letter-spacing:-.01em}.p{letter-spacing:0}.q{letter-spacing:-.01em}.r{fill:url(#b)}.s,.t{letter-spacing:-.03em}.u{fill:url(#d)}.v{fill:url(#e)}.w,.x{letter-spacing:0}</style><linearGradient id="b" x1="1257" x2="1007.09" y1="844.09" y2="1303.73" gradientTransform="matrix(1, 0, 0, 1, 0, 0)" gradientUnits="userSpaceOnUse"><stop offset="0" stop-color="#13527c"/><stop offset="1" stop-color="#0a2a3f"/></linearGradient><linearGradient id="c" x1="1563" x2="1314.74" y1="833.92" y2="1294.45" xlink:href="#b"/><linearGradient id="d" x1="748.37" x2="936.88" y1="753.68" y2="1222.35" gradientTransform="matrix(1, 0, 0, 1, 0, 0)" gradientUnits="userSpaceOnUse"><stop offset="0" stop-color="#13527c"/><stop offset=".81" stop-color="#061723"/></linearGradient><linearGradient id="e" x1="1571.41" x2="1630.82" y1="562.92" y2="562.92" xlink:href="#b"/><linearGradient id="f" x1="1594.57" x2="1823.13" y1="491.25" y2="491.25" xlink:href="#b"/><linearGradient id="g" x1="432.39" x2="332.77" y1="1133.23" y2="1338.14" xlink:href="#b"/></defs><text class="m" transform="translate(237.42 1607.79)"><tspan x="0" y="0" class="j">A</tspan> <tspan x="93.82" y="0"> u</tspan> <tspan x="174.58" y="0" class="q"> t</tspan> <tspan x="220.11" y="0"> o</tspan> <tspan x="306.24" y="0" class="i"> b</tspan> <tspan x="394.83" y="0" class="s"> o</tspan> <tspan x="476.9" y="0" class="p"> t</tspan> <tspan x="524.46" y="0" class="x"> </tspan> <tspan x="546.79" y="0" class="w"> W</tspan> <tspan x="698.6" y="0"> ija</tspan> <tspan x="850.27" y="0" class="t"> y</tspan> <tspan x="923.64" y="0"> a</tspan> <tspan x="1012.96" y="0" class="o"> </tspan> <tspan x="1035" y="0" class="k"> S</tspan> <tspan x="1114.9" y="0"> olution</tspan></text><g><path d="M1422.19,675.63c-23.87,49.07-60.88,125.63-105.85,220.77-24.86,52.58-50.62,104.74-75.61,157.26-78.76,165.53-99.92,216.02-157.26,241.94-37.55,16.97-85.24,20.98-87.7,21.17-41.26,3.22-75.1-3.21-96.77-9.07,18.04-7.3,43.89-20.03,69.56-42.34,42.71-37.12,61.02-80,69.56-99.8,0,0,63.9-148.29,133.07-284.28,70.12-137.88,109.67-166.54,139.11-181.45,42.26-21.41,83.86-24.7,111.9-24.19Z" class="r"/><path d="M1724.61,675.63c-23.87,49.07-60.88,125.63-105.85,220.77-24.86,52.58-50.62,104.74-75.61,157.26-78.76,165.53-99.92,216.02-157.26,241.94-37.55,16.97-85.24,20.98-87.7,21.17-41.26,3.22-75.1-3.21-96.77-9.07,18.04-7.3,43.89-20.03,69.56-42.34,42.71-37.12,61.02-80,69.56-99.8,0,0,63.9-148.29,133.07-284.28,70.12-137.88,109.67-166.54,139.11-181.45,42.26-21.41,83.86-24.7,111.9-24.19Z" class="h"/><path d="M738.71,802.65c56.45,116.94,112.9,233.87,169.36,350.81,4.04,4.97,24.53,29.13,60.48,33.27,38.43,4.42,65.12-17.42,69.56-21.17-5.55,18.52-19.55,56.23-54.44,90.73-32.12,31.76-66.48,45.54-84.68,51.41-14.13-5.78-31.02-14.35-48.39-27.22-36.04-26.69-56.13-58.55-66.53-78.63-83.71-175.42-167.42-350.84-251.13-526.26,46.22-18.16,85.65-24.61,112.01-27.17,40.38-3.93,178.89-17.41,260.08,72.58,20.52,22.75,30.58,44.57,39.31,63.51,34.69,75.25,31.85,146.19,27.22,184.48-10.61-28.24-32.86-75.45-78.63-117.94-24.74-22.97-49.57-38.27-69.56-48.39h-84.68Z" class="u"/><path d="M1630.82,529.18c-5.39,21.72-10.78,43.45-16.17,65.17-14.41,.77-28.83,1.55-43.24,2.32l23.48-59.01c11.98-2.83,23.95-5.66,35.93-8.49Z" class="v"/><path d="M1786.85,533.09l14.45-86.5c.52-18.45-1-48.34-13.89-82.04-9.86-25.78-23.01-44.99-33.29-57.68-11.61,6.29-25,15.07-38.29,27.33-34.2,31.55-48.57,68.41-54.72,88.98-11.5,38.45-3.63,42.01-20.43,122.3-6.28,30.02-10.78,44.93-12.84,51.53-10.56,33.74-23.36,60.36-33.27,78.63,30.85-9.88,66.41-18.17,106.16-22.19,9.19-.93,18.17-1.59,26.9-2.01,6.81-6.9,14-14.94,21.17-24.19,4.95-6.4,9.32-12.64,13.17-18.59,15.24,12.77,30.49,25.53,45.73,38.3l15.44-74.07-36.28-39.79Zm-59.44-59.8c-19.91,0-36.05-16.14-36.05-36.05s16.14-36.05,36.05-36.05,36.05,16.14,36.05,36.05-16.14,36.05-36.05,36.05Z" class="l"/><polygon points="497.91 1194.79 402.98 995.43 270.07 1308.71 443.49 1308.71 497.91 1194.79" class="n"/></g></svg>